# xmcd CD database file
#
# Track frame offsets:
#	210
#	20663
#	35007
#	48735
#	69422
#	88923
#	116566
#	138926
#	159446
#	172377
#	202931
#
# Disc length: 2897 seconds
#
# Revision: 2
# Processed by: cddbd v1.5.2PL0 Copyright (c) Steve Scherf et al.
# Submitted via: CDex 1.70beta2
#
DISCID=9e0b4f0b
DTITLE=Joan Cartwright - An Evening of Music with Joan Cartwright
DYEAR=1995
DGENRE=Blues
TTITLE0=Feelin' Good
TTITLE1=Nobody's Husband
TTITLE2=Boplicity
TTITLE3=Astrud
TTITLE4=Blues in the Pockets
TTITLE5=No Love
TTITLE6=Mean to Me - I've Got It Bad
TTITLE7=Dreamin'
TTITLE8=Ms. Celie's Blues
TTITLE9=Loneliblue
TTITLE10='Round Midnight
EXTD=YEAR: 1995
EXTT0=
EXTT1=
EXTT2=
EXTT3=
EXTT4=
EXTT5=
EXTT6=
EXTT7=
EXTT8=
EXTT9=
EXTT10=
PLAYORDER=
